/* XPM */
static char *result[] = {
/* columns rows colors chars-per-pixel */
"64 64 217 2 ",
"   c #3E3A36",
".  c #3E3B39",
"X  c #423C36",
"o  c #413F3E",
"O  c #4A4239",
"+  c #5C4A33",
"@  c #574835",
"#  c #795A2F",
"$  c #644E31",
"%  c #6C5332",
"&  c #785A30",
"*  c #4A4846",
"=  c #544F4B",
"-  c #5D524C",
";  c #5D5C5A",
":  c #575554",
">  c #62564E",
",  c #635B57",
"<  c #62605E",
"1  c #686766",
"2  c #747372",
"3  c #7C7B7B",
"4  c #787676",
"5  c #A5191F",
"6  c #A81A21",
"7  c #B61C22",
"8  c #9D2A23",
"9  c #9B3625",
"0  c #A72924",
"q  c #B42826",
"w  c #A33826",
"e  c #BD342C",
"r  c #B83A2D",
"t  c #B33D32",
"y  c #BA3831",
"u  c #AE3C31",
"i  c #D41E28",
"p  c #CC232A",
"a  c #CB2E2D",
"s  c #C7272C",
"d  c #D5262C",
"f  c #DC242D",
"g  c #D42B2E",
"h  c #DC2B2F",
"j  c #C3342D",
"k  c #CD322E",
"l  c #C4382E",
"z  c #C8382C",
"x  c #D2312F",
"c  c #D8332F",
"v  c #CE2F30",
"b  c #DC2D31",
"n  c #D82B31",
"m  c #C43331",
"M  c #CB3431",
"N  c #C53E33",
"B  c #D53231",
"V  c #DC3332",
"C  c #DB3B36",
"Z  c #D73A34",
"A  c #E4222D",
"S  c #E9232D",
"D  c #E3292F",
"F  c #E12C31",
"G  c #E62731",
"H  c #E13233",
"J  c #E13937",
"K  c #E31F2C",
"L  c #9B4628",
"P  c #835E2E",
"I  c #995529",
"U  c #AE492E",
"Y  c #BC412D",
"T  c #B64C2E",
"R  c #B44433",
"E  c #BB4332",
"W  c #B44C32",
"Q  c #BC4E34",
"!  c #BD4F39",
"~  c #B55232",
"^  c #B85733",
"/  c #AB5132",
"(  c #86612D",
")  c #8C632C",
"_  c #9C6529",
"`  c #96692B",
"'  c #9B6B2A",
"]  c #96662C",
"[  c #986E35",
"{  c #90672F",
"}  c #A16F2A",
"|  c #A4672C",
" . c #A27129",
".. c #AB762E",
"X. c #AD6C3C",
"o. c #AD6738",
"O. c #B46E3B",
"+. c #B86838",
"@. c #B67639",
"#. c #A77433",
"$. c #C8452D",
"%. c #C34134",
"&. c #C44D34",
"*. c #C94937",
"=. c #D94433",
"-. c #DD4936",
";. c #D1443B",
":. c #D84737",
">. c #C65739",
",. c #D95235",
"<. c #D95639",
"1. c #E24F3D",
"2. c #E15A3E",
"3. c #C5663D",
"4. c #D97C39",
"5. c #D77E3A",
"6. c #CA7B38",
"7. c #A97B44",
"8. c #B57845",
"9. c #807E7E",
"0. c #876642",
"q. c #C65B45",
"w. c #DD5A43",
"e. c #E15E45",
"r. c #C66342",
"t. c #D86544",
"y. c #C87847",
"u. c #D5744A",
"i. c #BA863E",
"p. c #BB8034",
"a. c #CC8D3B",
"s. c #C6853A",
"d. c #D6813C",
"f. c #CF903D",
"g. c #D3933D",
"h. c #DB973E",
"j. c #DC993D",
"k. c #BE8941",
"l. c #BA864A",
"z. c #BB8C54",
"x. c #82807F",
"c. c #C28B42",
"v. c #CA8D43",
"b. c #CC8A4A",
"n. c #DA8745",
"m. c #CC934C",
"M. c #CC9348",
"N. c #D29443",
"B. c #DC9B4C",
"V. c #D99648",
"C. c #CB9654",
"Z. c #D49A53",
"A. c #DA9B54",
"S. c #D29B58",
"D. c #CB8751",
"F. c #E48A47",
"G. c #E39D43",
"H. c #E9934B",
"J. c #E5994B",
"K. c #ED9354",
"L. c #EE9C56",
"P. c #E69955",
"I. c #F09D57",
"U. c #DAA25D",
"Y. c #DBA157",
"T. c #E6A14D",
"R. c #ECA44C",
"E. c #E7A146",
"W. c #F2A84F",
"Q. c #E4A253",
"!. c #EBA552",
"~. c #EAAC5F",
"^. c #E9A858",
"/. c #F5AA51",
"(. c #F4A750",
"). c #F8B25C",
"_. c #E9AB61",
"`. c #F1AF60",
"'. c #FCB460",
"]. c #F7B460",
"[. c #8C8A8B",
"{. c #868585",
"}. c #918D8B",
"|. c #949393",
" X c #9C9C9B",
".X c #9A9796",
"XX c #918F90",
"oX c #A09E9E",
"OX c #A3A19F",
"+X c #A4A3A3",
"@X c #ACABAB",
"#X c #AAA8A6",
"$X c #B1B0AF",
"%X c #B3B3B3",
"&X c #BBBBBB",
"*X c #B8B7B6",
"=X c #B0AFAE",
"-X c #C2BEBD",
";X c #C3C3C3",
":X c #CCCBCB",
">X c #C7C8C8",
",X c #D3D3D3",
"<X c #DCDCDC",
"1X c #D8D7D7",
"2X c #D0CFCF",
"3X c #E0DFDC",
"4X c #E1E0DF",
"5X c #E1DFE0",
"6X c #DFE0E0",
"7X c #E4E4E4",
"8X c #EBEBEB",
"9X c #E8E7E6",
"0X c #F4F4F4",
"qX c #F8F8F8",
"wX c #F7F7F8",
"eX c #EFF0EF",
"rX c None",
/* pixels */
"rXrXrXrXrXrXrXrXrXrXrXrXrXrXrXrXrXrXrXrXrXrXrXrXrXrXrXrXrXrXrXrXrXrXrXrXrXrXrXrXrXrXrXrXrXrXrXrXrXrXrXrXrXrXrXrXrXrXrXrXrXrXrXrX",
"rXrXrXrXrXrXrXrXrXrXrXrXrXrXrXrXrXrXrXrXrXrXrXrXrXrXrXrXrXrXrXrXrXrXrXrXrXrXrXrXrXrXrXrXrXrXrXrXrXrXrXrXrXrXrXrXrXrXrXrXrXrXrXrX",
"rXrXrXrXrXrXrXrXrXrXrXrXrXrXrXrXrXrXrXrXrXrXrXrXrXrXrXrXrXrXrXrXrXrXrXrXrXrXrXrXrXrXrXrXrXrXrXrXrXrXrXrXrXrXrXrXrXrXrXrXrXrXrXrX",
"rXrXrXrXrXrXrXrXrXrXrXrXrXrXrXrXrXrXrXrXrXrXrXrXrXrXrXrX&X:XrX7X,X4X9X1XrXrXrXrXrXrXrXrXrXrXrXrXrXrXrXrXrXrXrXrXrXrXrXrXrXrXrXrX",
"rXrXrXrXrXrXrXrXrXrXrXrXrXrXrXrXrXrXrXrXrXrXrXrXrXrXrXrX<X8X0XwXwXwXwX0X,XrXrXrXrXrXrXrXrXrXrXrXrXrXrXrXrXrXrXrXrXrXrXrXrXrXrXrX",
"rXrXrXrXrXrXrXrXrXrXrXrXrXrXrXrXrXrXrXrXrXrXrXrXrXrXrXrX6X0XwXwX0X0XwXwX<XrXrXrXrXrXrXrXrXrXrXrXrXrXrXrXrXrXrXrXrXrXrXrXrXrXrXrX",
"rXrXrXrXrXrXrXrXrXrXrXrXrXrXrXrXrXrXrXrXrXrXrX7X9X7X2XrX1X8XwX0XeX0XwXwX<XrX-X1X1X1XrXrXrXrXrXrXrXrXrXrXrXrXrXrXrXrXrXrXrXrXrXrX",
"rXrXrXrXrXrXrXrXrXrXrXrXrXrXrXrXrXrXrXrX,X7X7XeXqXqX7XrX:X7X9X8X8XeXeX8X&X.X;X<X8X0XeX7X6XrXrXrXrXrXrXrXrXrXrXrXrXrXrXrXrXrXrXrX",
"rXrXrXrXrXrXrXrXrXrXrXrXrXrXrXrXrXrXrX&X,X9XeXwXwXwX6XXX%X<X7X8X8X8X9X7X@X|.;X6X8X0XwXwX0X<XrXrXrXrXrXrXrXrXrXrXrXrXrXrXrXrXrXrX",
"rXrXrXrXrXrXrXrXrXrXrXrXrXrXrXrXrXrXrX-X:X9X0XwXwXwX8XoX;X9X8X8X7X4X7X<X+X X1X9XeX0XeXeX8X2XrXrXrXrXrXrXrXrXrXrXrXrXrXrXrXrXrXrX",
"rXrXrXrXrXrXrXrXrXrXrXrXrXrXrXrXrXrXrX%X:X7XeXwXwXwX8X%X&X7X9X9X6X<X9X1X X@X6X8X8X9X7X6X,X;XrXrXrXrXrXrXrXrXrXrXrXrXrXrXrXrXrXrX",
"rXrXrXrXrXrXrXrXrXrXrXrXrXrXrXrX4X7X+X X>X7X8X0XwX0X9X>X%X6X7X6X<X<X7X2X|.%X6X8X9X6X,X&X@XXX*X7X6XrXrXrXrXrXrXrXrXrXrXrXrXrXrXrX",
"rXrXrXrXrXrXrXrXrXrXrXrXrXrXrX3XeXwX;XXX%X6X8X8XeX8X7X;X@X<X6X<X7X<X<X;X|.;X7X8X7X6X>X#XXXXX<XwX0X7XrXrXrXrXrXrXrXrXrXrXrXrXrXrX",
"rXrXrXrXrXrXrXrXrXrXrXrXrXrX7X8XwXwX8X#X|.,X9X9X9X6X6X1X=X:X1X6X7X<X,X@X#X1X9X8X8X6X,X#X[.;X0XwXwX8X7XrXrXrXrXrXrXrXrXrXrXrXrXrX",
"rXrXrXrXrXrXrXrXrXrXrXrXrX2X7X0X0XwX0X<X X+X<X6X<X<X<X,X+X@X&X2X,X>X%X X=X1X9X9X7X<X;X X=X7XwX0X0X0X9X,XrXrXrXrXrXrXrXrXrXrXrXrX",
"rXrXrXrXrXrXrXrXrXrXrXrXrX1X9X9X8X0X0X6X&X X:X;X,X6X,X#X4 1 < ; ; ; ; 1 3  X;X,X<X2X%X X,X8XwXeX9X9X1X;X*XrXrXrXrXrXrXrXrXrXrXrX",
"rXrXrXrXrXrXrXrXrXrXrXrXrX;X1X8X8X8XeX7X2X+X%X%X%X X2 * .     X X X X . . O : [.*X&X+X;X6X9X8X6X7X7X:X&XrXrXrXrXrXrXrXrXrXrXrXrX",
"rXrXrXrXrXrXrXrXrXrXrX,X=X X*X1X6X8X8X7X1X%X|.2 = .   O $ & P ) ) ) ( & $ @ X . : 4 |.,X6X6X9X7X9X<X*X|.rX9XrXrXrXrXrXrXrXrXrXrX",
"rXrXrXrXrXrXrXrXrXrX7X9X:X@X|.%X:X<X7X6X<X+X; . X $ P '  . . .} ' }  . .} ` ( + O . ; =X<X1X,X9X6X%X|.#X6XwX8XrXrXrXrXrXrXrXrXrX",
"rXrXrXrXrXrXrXrXrXrX0X0X0X8X&XXX+X,X<X,X@X: . @ ( ' } ' I I ` ` ) ` ` I I ' } ' ( @   ; *X:X&X,X#X X>X8XwXwXeXrXrXrXrXrXrXrXrXrX",
"rXrXrXrXrXrXrXrXrX8XeX0XwXwX7X&X X@X;X|.* X % '  ._ L 8 5 8 ] [ ` ` [ 9 5 8 L ]  .' % X : |.=X#X X>X7X0X0X0X8X1XrXrXrXrXrXrXrXrX",
"rXrXrXrXrXrXrXrX<X7X8X8XeX0XeX6X2X#X{.* o &  .' L 0 6 U y r } #...` [ w 8 L 5 8 L '  .# X * 9.+X;X<X9X0X0X8X8X<X:XrXrXrXrXrXrXrX",
"rXrXrXrXrXrXrXrX1X6X8X9X7X9X8X8X6X#X= X & } ' w p i f j h =.g.h.g.g.g.&.7 0 6 6 6 9 '  .# X * #X1X9X8X8X8X8X9X6X:XrXrXrXrXrXrXrX",
"rXrXrXrXrXrXrXrX;X:X>X&X:X6X9X7X:X1 . % } | j >.-.f A S A =.j.j.g.G.R.<.K A p 7 w 9 8 `  .%   x.1X6X9X7X7X<X2X>X&XrXrXrXrXrXrXrX",
"rXrXrXrXrXrXrXrXrX#X}. X&X,X<X<X X. @ ` #.N A l V f A S A =.G.R.E././.2.S S A f q q 6 9 ' ' @ * =X1X<X1X>X*XoX#X2XrXrXrXrXrXrXrX",
"rXrXrXrXrXrXrX0X0X3X-X#X X#X&X&X1   P ..>.f S i S A D S K -.R.!.R.W.!.2.A S f f S S p 7 L  .( O 2 ;X;X@X+X@X&X1X0XeXrXrXrXrXrXrX",
"rXrXrXrXrXrX1X0XwXwX0X6X>X#XoX{.* + ..6.=.f A S S D A S A -.N.S.Q.M.A.2.S A f f S S A D e | | + * {.+X@X>X6XeXwXwX0X4XrXrXrXrXrX",
"rXrXrXrXrXrX1X8X0XwXwX9X6X,X%X1   ( a.^ r.g S S A f A S A -.J.T.!.B.T.2.S D f A A A f N q.$.@.] . 1 &X2X6X9X0XwXwX0X9XrXrXrXrXrX",
"rXrXrXrXrXrX,X7X9X0X0X0X9X<X,X< X @.d.D d h B h A A f S K -.(./.R./.W.2.S A f A D n v d f F F.B.@ ; 2X6X9XeX0XeX8X0X1XrXrXrXrXrX",
"rXrXrXrXrXrX,X7X9X9X9X9X9X6X;X* % h.3.M m t m E ;.f D A S -.(.W.B.G.R.<.K A f A ;.E y y M B t./.0.= ;X6X9X9X9X8X8X8X1XrXrXrXrXrX",
"rXrXrXrXrXrX:X1X<X6X<X<X6X,X Xo [ G.O.M W R h f q.b A A S -.G.J.Q./.`.e.S A A b q.d d E W j +.J.7.= +X1X6X1X<X7X6X<X,XrXrXrXrXrX",
"rXrXrXrXrXrX*X&X%X*X*X;X>X&X{.. l.B.^ %.Q $.N Q Q n A A K -.A.A.`.Y._.e.S A f f ! Q t Y W E W A.C.= XX&X;X=X&X&X%X&X*XrXrXrXrXrX",
"rXrXrXrXrXrXrXrX|.+X=X;X:X&X2 . 7.b.8.8.@.^ +.l.8.r.;.x K 1.A.Q.`.Z.~.w.A x *.r.y.l.O.o.O.8.8.b.z.- 3 *X;X*X;X:X%XrXrXrXrXrXrXrX",
"rXrXrXrXrXrXrXrX&X:X7XeX0X9X[.O 7.8.O.7.7.O.O.@.@.~ %.a K w.'.'.`.'.'.w.A k t ^ O.@.+.o.X.8.X.8.z.- [.,X<X8X8X0X6XrXrXrXrXrXrXrX",
"rXrXrXrXrXrXrXrX&X4X9XwXqXwX#X- m.V.Q t W &.t U &.d K S K 1.'.'.`.'.).w.A A f f Q U u ! ~ u W K.S.> [.,X7X0X0XwX7XrXrXrXrXrXrXrX",
"rXrXrXrXrXrXrXrX&X6X8XeXeX0X=X- m.H.R v W R d h &.B S S K 1.'.).^.R.E.<.S S f b &.h p R W v E P.U.> XX<X9XeXeX8X1XrXrXrXrXrXrXrX",
"rXrXrXrXrXrXrXrX,X6X7X9X9X8X@X- b.n.g e t u k l z f f -.V :.A.B.V.V.Q.2.F :.n A z l M t y j g H.S.> |.5X9X8X8X6X:XrXrXrXrXrXrXrX",
"rXrXrXrXrXrXrXrX:X1X<X1X,X:X[.- k.d.F f S d a d S f Z A.w.C v.C.!.M.Z.<.,.A.w.S A d a d A A D 4.c.- 3 -X;X2X1X2X&XrXrXrXrXrXrXrX",
"rXrXrXrXrXrXrXrX|.#X*X%X%X%X2 = b.H.B r.H f S S S d Q l.y.<.T.R.!.T.(.w.^ z.q.K A A D D A >.=.4.k.- 2 #X*X&X;X*X+XrXrXrXrXrXrXrX",
"rXrXrXrXrXrXrXrX%X:X6X9XeX8X.X- m.H.h z D f G S S ,.+.+.o.D././.!./.R.b.+.+.o.w.A f A A A l b 4.c.- {.2X<XeXeXeX5XrXrXrXrXrXrXrX",
"rXrXrXrXrXrXrXrX,X6X9XwXwX0X#X- m.n.F K S f S S f y.-.=.j 6.!./.!./.B.n.Z $.j y.D S A f A A D 4.k.> [.:X7XwXwXwX<XrXrXrXrXrXrXrX",
"rXrXrXrXrXrXrXrX:X<X8XwXwX0X+X- k.d.b V A f S D d r.<.A g D.^.(.T.R.v.D.J A =.u.S S D f D c D 4.c.- oX1X7X0XwX0X1XrXrXrXrXrXrXrX",
"rXrXrXrXrXrXrXrX:X6X8XeX8X9X X- k.F.B 3.V f S S i r 3.y.y.y.V.C.N.s.l.X.3.b.y.:.S S A f f >.c 4.c.- @X7X7X8X8XeX,XrXrXrXrXrXrXrX",
"rXrXrXrXrXrXrXrX;X1X7X7X<X;Xx.- S.P.n f A f h F A p 0 U r $.a.a.g.a.f.T 0 W m f S b B f A d D F.m.- |.<X<X1X7X6X:XrXrXrXrXrXrXrX",
"rXrXrXrXrXrXrXrX X=X=X%X%X@X2 - S.K.J B M t j y N f A i K =.j.j.g.j.j.,.d i A f ;.y e t M B H F.Z.- 2 *X=X+X@X@X+XrXrXrXrXrXrXrX",
"rXrXrXrXrXrXrXrX@X,X1X<X7X9X.X- S.L.&.M W R h g q.n G S K =.j.j.g.j.j.,.S S A B q.n d R W m &.F.Z.- {.;X,X<X7X7X:XrXrXrXrXrXrXrX",
"rXrXrXrXrXrXrXrX;X<X8XwXwXwX@X- S.U.&.%.Q r N Q ! d S S S =.j.j.g.j.j.,.K S A d &.! N Y Q N W F.Z.-  X<X9X8XwX0X6XrXrXrXrXrXrXrX",
"rXrXrXrXrXrXrXrX,X7XeXwX0X0X+X: D.D.8.8.O.+.+.l.y.r.;.c K =.f.m.f.M.m.,.A c =.r.y.z.O.^ 8.8.8.y.l.> |.1X7X0XwXwX4XrXrXrXrXrXrXrX",
"rXrXrXrXrXrXrXrX,X7X8XeX8X7X[.= 7.X.O.8.X.X.O.@.O.^ Y M A =.s.v.N.s.V.<.A x E / O.O.o.8.O.8.O.@.7.- [.1X8X0XeXeX<XrXrXrXrXrXrXrX",
"rXrXrXrXrXrXrXrX>X1X7X9X7X1X9.= i.s.W u ~ &.t U Q d A A f =.j.G.T.W.W.2.A D A p Q U y ! ~ t W 6.c.> }.1X9X9X9X,X&XrXrXrXrXrXrXrX",
"rXrXrXrXrXrXrXrX.X@X@X&X&X$X2 - i.d.E v W R d g &.h A A K -.W./.T.R.G.,.S A A g &.d p R W a Y d.m.- 4 &X-X;X-X+X|.rXrXrXrXrXrXrX",
"rXrXrXrXrXrXrXrX#X>X1X1X1X2X|.- i.d.x j y u m m j f A A A -.R.E.g.j.j.-.S S f f l e m t y e h K.U.> 9.%X&X;X,X>X#XrXrXrXrXrXrXrX",
"rXrXrXrXrXrXrXrX-X6X0XwXqXqX&X> i.d.D V G d j %.h f f C F =.g.N.g.g.N.<.S C h f A N m d S C H K.U.- |.,X<XeXwX0X:XrXrXrXrXrXrXrX",
"rXrXrXrXrXrXrXrX:X7X9XwXqX0X@X- i.d.x 3.V A f >.C A f >.Z =.i.v.f.i.M.,.d r.V A h 3.B A D >.C K.U.> [.1X7X8X0XwX5XrXrXrXrXrXrXrX",
"rXrXrXrXrXrXrXrX2X7X9X0X0XwX=X- i.n.V k V b b k H F b x h ,.a.f.f.f.f.<.b B V H b B V V H x J K.U.- [.<X7X9X8X8X7XrXrXrXrXrXrXrX",
"rXrXrXrXrXrXrXrX1X<X7X7X9X9X*X, m./.H.H.H.H.H.H.H.H.H.H.H.F.j.g.f.g.G.T.L.L.L.L.I.I.L.L.I.P.H.J.c.- |.<X5X6X7X9X1XrXrXrXrXrXrXrX",
"rXrXrXrXrXrXrXrX-X1X1X,X1X,X.X, D.Q.Y.Q.Q.Q.Q.Q.Q.!.Q.B.V.N.M.N.m.Y.~.~.~.~.~.~.~.~.~.~.Y.V.N.N.l.> }.<X3X1X,X:X*XrXrXrXrXrXrXrX",
"rXrXrXrXrXrXrXrXrXrXrXrXrXrXrXrXrXrXrXrXrXrXrXrXrXrXrXrXrXrXrXrXrXrXrXrXrXrXrXrXrXrXrXrXrXrXrXrXrXrXrXrXrXrXrXrXrXrXrXrXrXrXrXrX",
"rXrXrXrXrXrXrXrXrXrXrXrXrXrXrXrXrXrXrXrXrXrXrXrXrXrXrXrXrXrXrXrXrXrXrXrXrXrXrXrXrXrXrXrXrXrXrXrXrXrXrXrXrXrXrXrXrXrXrXrXrXrXrXrX",
"rXrXrXrXrXrXrXrXrXrXrXrXrXrXrXrXrXrXrXrXrXrXrXrXrXrXrXrXrXrXrXrXrXrXrXrXrXrXrXrXrXrXrXrXrXrXrXrXrXrXrXrXrXrXrXrXrXrXrXrXrXrXrXrX",
"rXrXrXrXrXrXrXrXrXrXrXrXrXrXrXrXrXrXrXrXrXrXrXrXrXrXrXrXrXrXrXrXrXrXrXrXrXrXrXrXrXrXrXrXrXrXrXrXrXrXrXrXrXrXrXrXrXrXrXrXrXrXrXrX",
"rXrXrXrXrXrXrXrXrXrXrXrXrXrXrXrXrXrXrXrXrXrXrXrXrXrXrXrXrXrXrXrXrXrXrXrXrXrXrXrXrXrXrXrXrXrXrXrXrXrXrXrXrXrXrXrXrXrXrXrXrXrXrXrX",
"rXrXrXrXrXrXrXrXrXrXrXrXrXrXrXrXrXrXrXrXrXrXrXrXrXrXrXrXrXrXrXrXrXrXrXrXrXrXrXrXrXrXrXrXrXrXrXrXrXrXrXrXrXrXrXrXrXrXrXrXrXrXrXrX",
"rXrXrXrXrXrXrXrXrXrXrXrXrXrXrXrXrXrXrXrXrXrXrXrXrXrXrXrXrXrXrXrXrXrXrXrXrXrXrXrXrXrXrXrXrXrXrXrXrXrXrXrXrXrXrXrXrXrXrXrXrXrXrXrX"
};
