/* XPM */
static char *result[] = {
/* columns rows colors chars-per-pixel */
"64 64 206 2 ",
"   c #030303",
".  c #050509",
"X  c #08070C",
"o  c #0B090C",
"O  c #110D09",
"+  c #16100B",
"@  c #1A130B",
"#  c #0D0C12",
"$  c #0E0E1C",
"%  c #120D13",
"&  c #1A0F1A",
"*  c #110F19",
"=  c #141416",
"-  c #1B1312",
";  c #16141B",
":  c #1A131C",
">  c #1A1A1D",
",  c #221715",
"<  c #271B18",
"1  c #321F1B",
"2  c #251C0C",
"3  c #29211E",
"4  c #35221C",
"5  c #3C291A",
"6  c #0A182F",
"7  c #141325",
"8  c #1D1522",
"9  c #1E1D23",
"0  c #15152B",
"q  c #19172C",
"w  c #1C1A2B",
"e  c #0A1830",
"r  c #1B1B31",
"t  c #241324",
"y  c #231D23",
"u  c #251C2B",
"i  c #2A1C2C",
"p  c #291726",
"a  c #221F32",
"s  c #2C1A35",
"d  c #3F1E3D",
"f  c #351B34",
"g  c #1A2138",
"h  c #242323",
"j  c #2B2225",
"k  c #25252A",
"l  c #2B232C",
"z  c #2B2C2F",
"x  c #3B2C2C",
"c  c #37242A",
"v  c #3F302A",
"b  c #262233",
"n  c #2C2333",
"m  c #2B2D30",
"M  c #2C233D",
"N  c #292539",
"B  c #33263B",
"V  c #3A2D3C",
"C  c #392839",
"Z  c #2F3034",
"A  c #333436",
"S  c #3C3231",
"D  c #34353A",
"F  c #3B373D",
"G  c #4C361D",
"H  c #422D26",
"J  c #4F3226",
"K  c #4C3924",
"L  c #45342D",
"P  c #4B382B",
"I  c #523D22",
"U  c #56372A",
"Y  c #483737",
"T  c #533B32",
"R  c #523C3D",
"E  c #5A3635",
"W  c #4C293A",
"Q  c #603D33",
"!  c #5A4524",
"~  c #4F403D",
"^  c #52423C",
"/  c #594439",
"(  c #694E2E",
")  c #664A26",
"_  c #6F532A",
"`  c #674936",
"'  c #735433",
"]  c #7A593F",
"[  c #7B4D3C",
"{  c #231E40",
"}  c #391B46",
"|  c #2E2B41",
" . c #2D2543",
".. c #372242",
"X. c #392440",
"o. c #332C43",
"O. c #3B2C42",
"+. c #3A264B",
"@. c #3C3343",
"#. c #3A3C43",
"$. c #3E334B",
"%. c #35324C",
"&. c #3E2653",
"*. c #3F3157",
"=. c #4A2D4C",
"-. c #472746",
";. c #42364B",
":. c #433B4B",
">. c #4D3C4E",
",. c #403344",
"<. c #4C2B56",
"1. c #49295D",
"2. c #472953",
"3. c #5C2E55",
"4. c #542B5D",
"5. c #4D3E52",
"6. c #473554",
"7. c #54375B",
"8. c #662F5E",
"9. c #643557",
"0. c #4E2460",
"q. c #58296A",
"w. c #573666",
"e. c #5C2C74",
"r. c #662D60",
"t. c #683268",
"y. c #683977",
"u. c #723972",
"i. c #7C3A7A",
"p. c #773673",
"a. c #524243",
"s. c #4F4154",
"d. c #4E455A",
"f. c #494959",
"g. c #5B4655",
"h. c #52555B",
"j. c #424347",
"k. c #6B4749",
"l. c #744E46",
"z. c #7A4E4A",
"x. c #6C554A",
"c. c #795548",
"v. c #664E51",
"b. c #785856",
"n. c #574667",
"m. c #575562",
"M. c #6C447B",
"N. c #684274",
"B. c #7E6161",
"V. c #805F2C",
"C. c #834F39",
"Z. c #825E38",
"A. c #8E563F",
"S. c #8D6D3C",
"D. c #86653B",
"F. c #906B32",
"G. c #967239",
"H. c #975E44",
"J. c #85595B",
"K. c #835947",
"L. c #896B40",
"P. c #9C644C",
"I. c #90614E",
"U. c #8C645A",
"Y. c #866254",
"T. c #A27145",
"R. c #A66C56",
"E. c #B9775B",
"W. c #865C67",
"Q. c #8B4F70",
"!. c #8A6568",
"~. c #9F6466",
"^. c #B36961",
"/. c #B77C64",
"(. c #AD6173",
"). c #A9796C",
"_. c #C47C6E",
"`. c #BC836E",
"'. c #C6856A",
"]. c #C88A74",
"[. c #CC967F",
"{. c #D49479",
"}. c #642D80",
"|. c #6A3A84",
" X c #783B92",
".X c #773484",
"XX c #734D85",
"oX c #7D4483",
"OX c #6E5090",
"+X c #7F50A4",
"@X c #943F85",
"#X c #8B3EA0",
"$X c #95478C",
"%X c #87459D",
"&X c #9345AB",
"*X c #8B51AC",
"=X c #8B52B0",
"-X c #8344AB",
";X c #A957A7",
":X c #C05F84",
">X c #C8678D",
",X c #9C42C4",
"<X c #BB8B86",
"1X c #B9A8BB",
"2X c #CE9680",
"3X c None",
/* pixels */
"3X3X3X3X3X3X3X3X3X3X3X3X3X3X3X3X3X3X3X3X3X3X3X3X3X3X3X3X3X3X3X3X3X3X3X3X3X3X3X3X3X3X3X3X3X3X3X3X3X3X3X3X3X3X3X3X3X3X3X3X3X3X3X3X",
"3X3X3X3X3X3X3X3X3X3X3X3X3X3X3X3X3X3X3X3X3X3X3X3X3X3X3X3X3X3X3X3X3X3X3X3X3X3X3X3X3X3X3X3X3X3X3X3X3X3X3X3X3X3X3X3X3X3X3X3X3X3X3X3X",
"3X3X3X3X3X3X3X3X3X3X3X3X3X3X3X3X3X3X3X3X3X3X3X3X3X3X3X3X3X3X3X3X3X3X3X3X3X3X3X3X3X3X3X3X3X3X3X3X3X3X3X3X3X3X3X3X3X3X3X3X3X3X3X3X",
"3X3X3X3X3X3X3X3X3X3X3X3X3X3X3X3X3X3X3X3X3X3X3X3X3X3X3X3X3X3X3X3X3X3X3X3X3X3X3X3X3X3X3X3X3X3X3X3X3X3X3X3X3X3X3X3X3X3X3X3X3X3X3X3X",
"3X3X3X3X3X3X3X3X3X3X3X3X3X3X3X3X3X3X3X3X3X3X3X3X3X3X3X3X3X3X3X3X3X3X3X3X3X3X3X3X3X3X3X3X3X3X3X3X3X3X3X3X3X3X3X3X3X3X3X3X3X3X3X3X",
"3X3X3X3X3X3X3X3X3X3X3X3X3X3X3X3X3X3X3X3X3X3X3X3X3X3X3X3X3X3X3X3X3X3X3X3X3X3X3X3X3X3X3X3X3X3X3X3X3X3X3X3X3X3X3X3X3X3X3X3X3X3X3X3X",
"3X3X3X3X3X3X3X3X3X3X3X3X3X3X3X3X3X3X3X3X3X3X3X3X3X3X3X3X3X3X3X3X3X3X3X3X3X3X3X3X3X3X3X3X3X3X3X3X3X3X3X3X3X3X3X3X3X3X3X3X3X3X3X3X",
"3X3X3X3X3X3X3X3X3X3X3X3X3X3X3X3X3X3X3X3X3X3X3X3X3X3X3X3X3X3X3X3X3X3X3X3X3X3X3X3X3X3X3X3X3X3X3X3X3X3X3X3X3X3X3X3X3X3X3X3X3X3X3X3X",
"3X3X3X3X3X3X3X3X3X3X3X3X3X3X3X3X3X3X3X3X3X3X3X3X3X3X3X3X3X3X3X3X3X3X3X3X3X3X3X3X3X3X3X3X3X3X3X3X3X3X3X3X3X3X3X3X3X3X3X3X3X3X3X3X",
"3X3X3X3X3X3X3X3X3X3X3X3X3X3X3X3X3X3X3X3X3X3X3X3X3X3X3X3X3X3X3X3X3X3X3X3X3X3X3X3X3X3X3X3X3X3X3X3X3X3X3X3X3X3X3X3X3X3X3X3X3X3X3X3X",
"3X3X3X3X3X3X3X3X3X3X3X3X3X3X3X3X3X3X3X3X3X3X3X3X3X3X3X3X3X3X3X3X3X3X3X3X3X3X3X3X3X3X3X3X3X3X3X3X3X3X3X3X3X3X3X3X3X3X3X3X3X3X3X3X",
"3X3X3X3X3X3X3X3X3X3X3X3X3X3X3X3X3X3X3X3X3X3X3X3X3X3X3X3X3X3X3X3X3X3X3X3X3X3X3X3X3X3X3X3X3X3X3X3X3X3X3X3X3X3X3X3X3X3X3X3X3X3X3X3X",
"3X3X3X3X3X3X3X3X3X3X3X3X3X3X3X3X3X3X3X# 3X3X3X3X3X3X3X3X3X3X3X3X3X3X3X3X3X3X3X3X3X3X3X3X3X3X3X3X3X3X3X3X3X3X3X3X3X3X3X3X3X3X3X3X",
"3X3X3X3X3X3X3X3X3X3X3X3X3X3X3X3X3X3X3XA 3X3X3X3X3X3X3X3X3X3X3XB V V n N 3X3X3X3X3X3X3X3X3X3X3X3X3X3X3X3X3X3X3X3X3X3X3X3X3X3X3X3X",
"3X3X3X3X3X3X3X3X3X3X3X3X3X3X3X3X3X3X3X3XD 3X3X3X3X3X3X3X3X3XO.,.g.s.V :.O.3X3X3X3X3X3X3X3X3X3X3X3X3X3X3X3X3X3X3X3X3X3X3X3X3X3X3X",
"3X3X3X3X3X3X3X3X3X3X3X3X3X3X3X3X3X3X3X3Xh 3X3X3X3X3X3X3X3Xn >.g.s.;.v.b.:.e 3X3X3X3X3X3X3X3X3X3X3X3X3X3X3X3X3X3X3X3X3X3X3X3X3X3X",
"3X3X3X3X3X3X3X3X3X3X3X3X3X3X3X3X3X3X3X= z Z 3X3X3X3X3X3X3XC x./.b.b.'.).@.g 3X3X3X3X3X3X3X3X3X3X3X3X3X3X3X3X3X3X3X3X3X3X3X3X3X3X",
"3X3X3X3X3X3X3X3X3X3X3X3X3X3X3X3X3X3X3Xk A = 3X3X3X3X3X3X3Xc l.Y.2X].J.l.s.| 6 3X3X3X3X3X3X3X3X3X3X3X3X3X3X3X3X3X3X3X3X3X3X3X3X3X",
"3X3X3X3X3X3X3X3X3X3X3X3X3X3X3X3X3X3X3X3Xj.z # 3X3X3X3X3X3X: f.W `.R.c m.@.| 6 3X3X3X3X3X3X3X3X3X3X3X3X3X3X3X3X3X3X3X3X3X3X3X3X3X",
"3X3X3X3X3X3X3X3X3X3X3X3X3X3X3X3X3X3X3X3Xh.#.= 3X3X3X3X3X3Xk 1X$X'.^.$X1Xk  .6 3X3X3X3X3X3X3X3X3X3X3X3X3X3X3X3X3X3X3X3X3X3X3X3X3X",
"3X3X3X3X3X3X3X3X3X3X3X3X3X3X3X3X3X3X. . z A z > 3X3X3X3X3X3 <X>X]._.:X).n <.e 3X3X3X3X3X3X3X3X3X3X3X3X3X3X3X3X3X3X3X3X3X3X3X3X3X",
"3X3X3X3X3X3X3X3X3X3X3X3X3X3X3X3X3X9 k > h > Z A 3X3X3X3X3Xc Q /.'.E.R.Q r.4. .3X3X3X3X3X3X3X3X3X3X3X3X3X3X3X3X3X3X3X3X3X3X3X3X3X",
"3X3X3X3X3X3X3X3X3X3X3X3X3X3X3X3X3X3Xz ; = N l F z 3X3X3X3XO.9.E U U W 8.q.&.w.6 3X3X3X3X3X3X3X3X3X3X3X3X3X3X3X3X3X3X3X3X3X3X3X3X",
"3X3X3X3X3X3X3X3X3X3X3X3X3X3X3X3X3X3X3X3X3Xb k m > 3X3X3X1.p.t.i - 5 p p.s } t.6 3X3X3X3X3X3X3X3X3X3X3X3X3X3X3X3X3X3X3X3X3X3X3X3X",
"3X3X3X3X3X3X3X3X3X3X3X3X3X3X3X3X3X3X3X3X3X. # ; m > 3X  X.i.=.( _ H r.<.8  .s : 3X3X3X3X3X3X3X3X3X3X3X3X3X3X3X3X3X3X3X3X3X3X3X3X",
"3X3X3X3X3X3X3X3X3X3X3X3X3X3X3X3X3X3X3X3X3XX l b.^ = 3X  u <.B ^ ' d f 8 q a c I.` 3X3X3X3X3X3X3X3X3X3X3X3X3X3X3X3X3X3X3X3X3X3X3X",
"3X3X3X3X3X3X3X3X3X3X3X3X3X3X3X3X3X3X3X3X3Xl B.].P.R m o 7 B ;.o.-.&X4.r | 7 3 x.L @ 3X3X3X3X3X3X3X3X3X3X3X3X3X3X3X3X3X3X3X3X3X3X",
"3X3X3X3X3X3X3X3X3X3X3X3X3X3X3X3X3X3X3X3XX h x K.!.j.= % 7 $.n.b d ,X4.6.| $ 4 k.h - 3X3X3X3X3X3X3X3X3X3X3X3X3X3X3X3X3X3X3X3X3X3X",
"3X3X3X3X3X3X3X3X3X3X3X3X3X3X3X3X3X3X3X3X3X# X p i ; X G O N %.q s 0.s o.0 - C.K.F 3 3X3X3X3X3X3X3X3X3X3X3X3X3X3X3X3X3X3X3X3X3X3X",
"3X3X3X3X3X3X3X3X3X3X3X3X3X3X3X3X3X3X3X3X3Xo : i u *   - O 7 0 $ & i 8 0 $ O L c.c.S - 3X3X3X3X3X3X3X3X3X3X3X3X3X3X3X3X3X3X3X3X3X",
"3X3X3X3X3X3X3X3X3X3X3X3X3X3X3X3X3X3X3X3X3X3X= : 8 & % - G + # q $.n.@.$ o   H P.R.l.l 3X3X3X3X3X3X3X3X3X3X3X3X3X3X3X3X3X3X3X3X3X",
"3X3X3X3X3X3X3X3X3X3X3X3X3X3X3X3X3X3X3X3X3X3X3X# & t & & G + 7  .s.s.@.l ;   3X/ (.9.-.oX3X3X3X3X3X3X3X3X3X3X3X3X3X3X3X3X3X3X3X3X",
"3X3X3X3X3X3X3X3X3X3X3X3X3X3X3X3X3X3X3X3X3X3X3X3X# p p t - . 7  .:.@.' Y !   3XW ;X#X=.w.3X3X3X3X3X3X3X3X3X3X3X3X3X3X3X3X3X3X3X3X",
"3X3X3X3X3X3X3X3X3X3X3X3X3X3X3X3X3X3X3X3X3X3X3X3X3X# t t % . 8 r | Z / S.S.3X3XT W.W.c.y 3X3X3X3X3X3X3X3X3X3X3X3X3X3X3X3X3X3X3X3X",
"3X3X3X3X3X3X3X3X3X3X3X3X3X3X3X3X3X3X3X3X3X3X3X3X3X3X# # 3X@ ! L a.L.] ^ S 3X3X3Xc W.b.i 7.3X3X3X3X3X3X3X3X3X3X3X3X3X3X3X3X3X3X3X",
"3X3X3X3X3X3X3X3X3X3X3X3X3X3X3X3X3X3X3X3X3X3X3X3X3X3X3X3X3XV.S.S.D.^ Y ' ( 3X3X3XE J.9.5.M.3X3X3X3X3X3X3X3X3X3X3X3X3X3X3X3X3X3X3X",
"3X3X3X3X3X3X3X3X3X3X3X3X3X3X3X3X3X3X3X3X3X3X3X3X3X3X3X3XS.L.^ S L ] U.R j   3X3XC -.Q.k.i 3X3X3X3X3X3X3X3X3X3X3X3X3X3X3X3X3X3X3X",
"3X3X3X3X3X3X3X3X3X3X3X3X3X3X3X3X3X3X3X3X3X3X3X3X3X3X3XG.P Y ' _ ( g.;X~.)   3X3X3Xe.#X3.+.M.oX3X3X3X3X3X3X3X3X3X3X3X3X3X3X3X3X3X",
"3X3X3X3X3X3X3X3X3X3X3X3X3X3X3X3X3X3X3X3X3X3X3X3X3X3X3XZ.H.T.H., > K k.$XJ O 3X3Xc E k.-.w.OXM.3X3X3X3X3X3X3X3X3X3X3X3X3X3X3X3X3X",
"3X3X3X3X3X3X3X3X3X3X3X3X3X3X3X3X3X3X3X3X3X3X3X3X3X3X, R.{.'.C.< . 7 @.^ V y   3XJ A.P.l.|.-Xy.3X3X3X3X3X3X3X3X3X3X3X3X3X3X3X3X3X",
"3X3X3X3X3X3X3X3X3X3X3X3X3X3X3X3X3X3X3X3X3X3X3X3X3X3Xy J.[./.1 t 3XX o.s.%.9   3X5 U U J ;.*X X3X3X3X3X3X3X3X3X3X3X3X3X3X3X3X3X3X",
"3X3X3X3X3X3X3X3X3X3X3X3X3X3X3X3X3X3X3X3X3X3X3X3X3X3Xn ,.!.P.1 t 3XX $.d.*.0.  3X- 3X3Xk n.N.u.3X3X3X3X3X3X3X3X3X3X3X3X3X3X3X3X3X",
"3X3X3X3X3X3X3X3X3X3X3X3X3X3X3X3X3X3X3X3X3X3X3X3X3X3X; l >.x., t 3Xo n.+X Xq.  3X3X3X..$.w.7.3X3X3X3X3X3X3X3X3X3X3X3X3X3X3X3X3X3X",
"3X3X3X3X3X3X3X3X3X3X3X3X3X3X3X3X3X3X3X3X3X3X3X3X3X3X# w V n : t 3Xq.y.=X|.} q.3Xw.7.2.&.B 3X3X3X3X3X3X3X3X3X3X3X3X3X3X3X3X3X3X3X",
"3X3X3X3X3X3X3X3X3X3X3X3X3X3X3X3X3X3X3X3X3X3X3X3X3X  9 b u X u q 3X%X2.d.6.e.q.u.3X3X3X3X3X3X3X3X3X3X3X3X3X3X3X3X3X3X3X3X3X3X3X3X",
"3X3X3X3X3X3X3X3X3X3X3X3X3X3X3X3X3X3X3X3X3X3X3X3X3Xk f.#.n X p 0 3Xt.% D N..Xd 3X3X3X3X3X3X3X3X3X3X3X3X3X3X3X3X3X3X3X3X3X3X3X3X3X",
"3X3X3X3X3X3X3X3X3X3X3X3X3X3X3X3X3X3X3X3X3X3X3X3X3XA h.#.; $ s 0 3X3XW D m.7.i.3X3X3X3X3X3X3X3X3X3X3X3X3X3X3X3X3X3X3X3X3X3X3X3X3X",
"3X3X3X3X3X3X3X3X3X3X3X3X3X3X3X3X3X3X3X3X3X3X3X3X3X# m k . $ r 0 3X3Xs @.Z l XXXX3X3X3X3X3X3X3X3X3X3X3X3X3X3X3X3X3X3X3X3X3X3X3X3X",
"3X3X3X3X3X3X3X3X3X3X3X3X3X3X3X3X3X3X3X3X3X3X3X3X3X# 7 0 . 3X0 0 3X3XX a 7 p N.7.3X3X3X3X3X3X3X3X3X3X3X3X3X3X3X3X3X3X3X3X3X3X3X3X",
"3X3X3X3X3X3X3X3X3X3X3X3X3X3X3X3X3X3X3X3X3X3X3X3X  K z # 3X3X3X0 3X3X+ ! s -.6.3X3X3X3X3X3X3X3X3X3X3X3X3X3X3X3X3X3X3X3X3X3X3X3X3X",
"3X3X3X3X3X3X3X3X3X3X3X3X3X3X3X3X3X3X3X3X3X3X3X3X! F.a.% 3X3X3X3X3X3X2 G.` B 3X3X3X3X3X3X3X3X3X3X3X3X3X3X3X3X3X3X3X3X3X3X3X3X3X3X",
"3X3X3X3X3X3X3X3X3X3X3X3X3X3X3X3X3X3X3X3X3X3X3X  ) x.@.* 3X3X3X3X3X3X3 L.L X 3X3X3X3X3X3X3X3X3X3X3X3X3X3X3X3X3X3X3X3X3X3X3X3X3X3X",
"3X3X3X3X3X3X3X3X3X3X3X3X3X3X3X3X3X3X3X3X3X3X3Xy >.%X} %.3X3X3X3X3XX Z v.V   3X3X3X3X3X3X3X3X3X3X3X3X3X3X3X3X3X3X3X3X3X3X3X3X3X3X",
"3X3X3X3X3X3X3X3X3X3X3X3X3X3X3X3X3X3X3X3X3X3X! D.' [ < 3X3X3X3X3X3XO ) Z.I   3X3X3X3X3X3X3X3X3X3X3X3X3X3X3X3X3X3X3X3X3X3X3X3X3X3X",
"3X3X3X3X3X3X3X3X3X3X3X3X3X3X3X3X3X3X3X3X3X3X3X3X3X3X3X3X3X3X3X3X3X3X3X3X3X3X3X3X3X3X3X3X3X3X3X3X3X3X3X3X3X3X3X3X3X3X3X3X3X3X3X3X",
"3X3X3X3X3X3X3X3X3X3X3X3X3X3X3X3X3X3X3X3X3X3X3X3X3X3X3X3X3X3X3X3X3X3X3X3X3X3X3X3X3X3X3X3X3X3X3X3X3X3X3X3X3X3X3X3X3X3X3X3X3X3X3X3X",
"3X3X3X3X3X3X3X3X3X3X3X3X3X3X3X3X3X3X3X3X3X3X3X3X3X3X3X3X3X3X3X3X3X3X3X3X3X3X3X3X3X3X3X3X3X3X3X3X3X3X3X3X3X3X3X3X3X3X3X3X3X3X3X3X",
"3X3X3X3X3X3X3X3X3X3X3X3X3X3X3X3X3X3X3X3X3X3X3X3X3X3X3X3X3X3X3X3X3X3X3X3X3X3X3X3X3X3X3X3X3X3X3X3X3X3X3X3X3X3X3X3X3X3X3X3X3X3X3X3X",
"3X3X3X3X3X3X3X3X3X3X3X3X3X3X3X3X3X3X3X3X3X3X3X3X3X3X3X3X3X3X3X3X3X3X3X3X3X3X3X3X3X3X3X3X3X3X3X3X3X3X3X3X3X3X3X3X3X3X3X3X3X3X3X3X",
"3X3X3X3X3X3X3X3X3X3X3X3X3X3X3X3X3X3X3X3X3X3X3X3X3X3X3X3X3X3X3X3X3X3X3X3X3X3X3X3X3X3X3X3X3X3X3X3X3X3X3X3X3X3X3X3X3X3X3X3X3X3X3X3X",
"3X3X3X3X3X3X3X3X3X3X3X3X3X3X3X3X3X3X3X3X3X3X3X3X3X3X3X3X3X3X3X3X3X3X3X3X3X3X3X3X3X3X3X3X3X3X3X3X3X3X3X3X3X3X3X3X3X3X3X3X3X3X3X3X",
"3X3X3X3X3X3X3X3X3X3X3X3X3X3X3X3X3X3X3X3X3X3X3X3X3X3X3X3X3X3X3X3X3X3X3X3X3X3X3X3X3X3X3X3X3X3X3X3X3X3X3X3X3X3X3X3X3X3X3X3X3X3X3X3X",
"3X3X3X3X3X3X3X3X3X3X3X3X3X3X3X3X3X3X3X3X3X3X3X3X3X3X3X3X3X3X3X3X3X3X3X3X3X3X3X3X3X3X3X3X3X3X3X3X3X3X3X3X3X3X3X3X3X3X3X3X3X3X3X3X",
"3X3X3X3X3X3X3X3X3X3X3X3X3X3X3X3X3X3X3X3X3X3X3X3X3X3X3X3X3X3X3X3X3X3X3X3X3X3X3X3X3X3X3X3X3X3X3X3X3X3X3X3X3X3X3X3X3X3X3X3X3X3X3X3X"
};
