/* XPM */
static char *result[] = {
/* columns rows colors chars-per-pixel */
"64 64 37 1 ",
"  c #4D3728",
". c #4E3828",
"X c #553E2A",
"o c #57402A",
"O c #5E442E",
"+ c #61472E",
"@ c #664B2F",
"# c #684D2F",
"$ c #644731",
"% c #654931",
"& c #6B4D32",
"* c #6E5132",
"= c #735532",
"- c #7B5D35",
"; c #745238",
": c #7A563A",
"> c #7F6036",
", c #855E3F",
"< c #856538",
"1 c #886739",
"2 c #8A693A",
"3 c #8D6342",
"4 c #926644",
"5 c #946845",
"6 c #9B6C43",
"7 c #A26F45",
"8 c #A27046",
"9 c #A97448",
"0 c #AC8443",
"q c #B18744",
"w c #B48945",
"e c #BB8F47",
"r c #BB8F48",
"t c #BC9047",
"y c #BC9048",
"u c #C5974A",
"i c #C6984A",
/* pixels */
"X@##%%##################################$#####$#####o@###@####@X",
"@qteeetttttteeeerrrrrrreeeeeeereeeeeeeeeeueeeewuuweq=0tteeeettq@",
"#tiuuiiiiiiuiiuuuiuuuiuuuuuuiuuuuuuiiuuuuuuuuuuuuuue=wiiuuiuuue@",
"#ruuuuuiiuuuuuuuuuuuuuuuuuuuuuuuuuiuuuuuuuuuuuuuuuut=wiuuuuuuue@",
"#tii0--wuuuuuuuuuuuuuuuuuuuuuuuuuuuuuuuuuuuuuuuuuuut=wiiq--qiie@",
"#eiu- .<iuuuuuuuuuuuuuuuuuuuuuuuuuuuuuuuuuuuuuuuuuut=wiu<. =uut@",
"%tiu- .2iuuuuuuuuuuuuuuuuuuuuuuuuuuuuuuuuuuuuuuuuuut=wuu1..<uie@",
"#tiiw<2euuuuuuuuuuuuuuuuuuuuuuuuuuuuuuuuuuuuuuuuuuut=wiut2<qiie@",
"#riuiiiuuuiiiuuuuuuuuuuuuuuuuuuuuuuuuuuuuuuuuuuuiiit=wiuiiiiuit@",
"#tiiiiiiiuiiiiiiuuuuuuuuuuuuiuuuiiiiuuuuiiiuuuuiiiit=wiuuiuuuit@",
"@0wwwwwwwwwwwwwwqwwwwwwwwwwwwwwwwwwwwwwwwwwwwwwwwww0=qiuuuuuuie@",
"X*========*+%#&#&&&$&&&&&&&%%&&&&###+&&&&&&&O&&&*##@@wiuuuuuuue@",
"#wueyttryy0%1333333$,333333&:333423;&433333&$6777782*wiiuuuuuit@",
"#ruuuuiiiiw&3555554%,555555&:555555:;55554;%79999999#wiiuuuuuut@",
"#euuuuuuuiw&3555554$,555555;:555555:&5554;&699999999*wuuuuuuuue@",
"#euuuuuuuiw&3555553$,555555&:555555:&555;&7999999997*quuuuuuuut@",
"#euuuuuuuiw&3555555%,555555;:555555:&44;%69999999997&wiiuuuuuie#",
"#euuuuuuuiw%3555553$,555555&:555555:&4;&699999999997*wiiuuuuuie#",
"#euuuuuuuiw&3555555%,555555&:555555:;;&6999999999992&wiuuuuuuie@",
"#euuuuuuuiw&3555553%,555555;:555554:X&7999999999997&+wiuuuuuuir+",
"#euuuuuuuiw&3555554$3555555&:555555;%6999999999997&;%wiuuuuuuir#",
"#euuuuuuuiw&3555544$,455555&:55554;%6999999999996&;3#wiuuuuuuie@",
"#ruuuuuuuiw&3555554$,555555&:5554;%7999999999996$;54&wiuuuuuuue@",
"#euuuuuuiiw&3555554%,555555;:554;&6999999999996&;45,&wiuuuuuuur+",
"#euuuuuuuiw#3555554$,555555&:55;%7999999999996%;5553&wiuuuuuuur#",
"#ruuuuuuuiw&3555553$,555555&:5;&6999999999996&;45553&wiuuuuuuue@",
"#euuuuuuuiw&3555554$,555555&:;&6999999999996&;455553%wiiuuuuuie@",
"#eiuuuuuuiw#3555554$3555554;O&6999999999996%O4555553*wiiuuuuuue@",
"#ruuuuuuuiw&3555554$,555554%%6999999999996%%$4545553#wiiuuuuuie#",
"#euuuiuuuiw#3555555$355554;&6999999999996&;,%4555553&wiiuuuuuie@",
"#eiuuuuuuiw&3555554$,5554;&6999999999995&;5,$4555551&wiuuuuuuue#",
"#eiuuuuuuiw&3555553$,553;&6999999999996&;45,$4555443&wiuuuuuuit+",
"&ruuuuuuuiw&3555554$,55;&6999999999996&;455,$4555553&wiiiuuuuie#",
"&ruuuuuuuuq&3555554$,5;&6999999999996&;4555,$4555553&wiiuuuuuie#",
"%riuuuuuuiw&4455554$,;&6999999999997&;44555,$4555553&wiuuuuuuue+",
"#eiuuuuuuiw%3555555$$&6999999999995$&455546,$4555543#wiuuuuuuir#",
"#euuuuuuuiw&3455554X$6999999999996&O;555555,$4555553&wiuuuuuuir@",
"#ruuuuuuuiw&445554;&5999999999996&;;&455555,$3555553&wuuuuuuuue#",
"#ruuuuuuuiw&44444;&6999999999996$;5:;555555,$5555453&wuuuuuuuue@",
"#ruuuuuuuiw&4554;&7999999999996&;55;&555555,$4555553&wuuuuuuuue@",
"#riuuuuuiiq&354;&6999999999996%;555,&555555,$5555553&wiuuuuuuue@",
"#euuuuuuiiw&44;&6999999999996&;4555;&555555,$4555553*wiuuuuuuue@",
"#euuuuuuiiq&3;&6999999999996&;55555;;555555,$4555453%wiuuuuuuie@",
"#euuuuuuiiq&;$6999999999996%;355543,&555555,$3555553*wiuuuuuuie@",
"#ruuuuuuuir$$6999999999996&o:555554,$455555,$5555553&wiuuuuuuie#",
"#riuuuuuuiw$6999999999996%;&:555554;&555556,$4555553&wiiuuuuuit+",
"#ruuuuuuuiw&799999999995&;5&:555555,;555555,$4555553&wiuuuuuuut@",
"#ruuuuuuuiw&79999999996&;55;:555555;&555555,$4555453#wiuuuuuuie#",
"#euuuuuuuiw*7999999996&;455&:555555:;555544,@3555553*wuuuuuuuue@",
"#euuuuuuuiw*799999996&;4555&:555555:&555555,%4555553%wiuuuuuuue@",
"#euuuuuuuiw*79999995&;45545;:555555:;455554,%4554453*wiuuuuuuue@",
"#euuuuuuuiw*2777885@*333333&;333333;&333333,+333333<%0yyyyyyteq@",
"#ruuuuuuuuw+******@O@&&&&&&+%&&&&&&@@&&&&&&@@@&&&&&&%*========*o",
"#ruuuuuuuuw*9ewwwewewwwwwwrwwwwwwwwwwwwwwwwwwwwwwwwwwwwwwwwwww0@",
"#euuuuuuuuw=uiiiiiiiiiiiiiiiiiiiiiiiiiiiiiiiiiiiiiiiiiiiiiiiiue@",
"#ruuiuuuuiq=euuuyiiiiiuuiyiiiiiiiyiiiiyiiiiiuuuuuuuuiiuuuiuiuue@",
"@euuw<1eiiw=uuuuuuuuuuuuuuuuuuuuiiiiiyiiuuuuuuuuuuuuuuuie1<wuiy#",
"#euu>..1uiw=euuuuiuuuuuuiuuuuuuuiiiiiiiiuuuuuuuiuuuuuuuu1  >yit#",
"#tiu-  <iiw=euuuuuuuuuuuuuuuuuuuiiyiiyiiuuuuuuuuuuuuuuiu<. -yut@",
"@eui0->wiiw=euuuuuuuuuuuuuuuuuuuiiiiiiiiuuuuuuuuuuuuuuiiw>>0iut@",
"#tuuuuuuuuw=euuuiiiuiiiyuuuuiuuuuuuuiiiiiiiuiiiiuuuuiiyiiiyuiiy#",
"#tiiuuuuuuw=uuuuiyiiiiiiiuiiiyiiiuuuiiiiiyuiiiiyiuiiiiiiiiiuiiy@",
"@qteeeeete0*qewetttyytttttrtetttttrrrrrrtttttttettttyttyyyttttw@",
"X@@@@@#@##+X##$#@@@@@@@@@@@@@@@@@@@@@%%%@@@@@@@@@@@@@@@@@@@@@@Oo"
};
