/* XPM */
static char *result[] = {
/* columns rows colors chars-per-pixel */
"100 100 47 1 ",
"  c #0C0A07",
". c #0E0D09",
"X c #100F0B",
"o c #12110E",
"O c #151412",
"+ c #181714",
"@ c #1A1916",
"# c #1D1C1A",
"$ c #201F1C",
"% c #22211E",
"& c #252422",
"* c #282724",
"= c #292926",
"- c #2D2C2A",
"; c #302F2C",
": c #32312E",
"> c #353432",
", c #383735",
"< c #393937",
"1 c #3C3C3A",
"2 c #464645",
"3 c #484846",
"4 c #4D4D4C",
"5 c #555453",
"6 c #5C5B5A",
"7 c #696867",
"8 c #6D6C6B",
"9 c #70706F",
"0 c #7C7C7B",
"q c #868685",
"w c #8D8D8C",
"e c #939393",
"r c #999998",
"t c #A3A3A1",
"y c #ACACAB",
"u c #B9B9B8",
"i c #C0BFBF",
"p c #C4C4C4",
"a c #CECECE",
"s c #D4D4D3",
"d c #DEDDDD",
"f c gray88",
"g c gray92",
"h c #F2F2F2",
"j c #F8F8F7",
"k c #FEFEFE",
"l c None",
/* pixels */
"llllllllllllllllllllllllllllllllllllllllllllllllllllllllllllllllllllllllllllllllllllllllllllllllllll",
"llllllllllllllllllllllllllllllllllllllllllllllllllllllllllllllllllllllllllllllllllllllllllllllllllll",
"llllllllllllllllllllllllllllllllllllllllllllllllllllllllllllllllllllllllllllllllllllllllllllllllllll",
"llllllllllllllllllllllllllllllllllllllllllllllllllllllllllllllllllllllllllllllllllllllllllllllllllll",
"llllllllllllllllllllllllllllllllllllllllllllllllllllllllllllllllllllllllllllllllllllllllllllllllllll",
"llllllllllllllllllllllllllllllllllllllllllllllllllllllllllllllllllllllllllllllllllllllllllllllllllll",
"llllllllllllllllllllllllllllllllllllllllllllllllllllllllllllllllllllllllllllllllllllllllllllllllllll",
"llllllllllllllllllllllllllllllllllllllllllllllllllllllllllllllllllllllllllllllllllllllllllllllllllll",
"llllllllllllllllllllllllllllllllllllllllllllllllllllllllllllllllllllllllllllllllllllllllllllllllllll",
"llllllllllllllllllllllllllllllllllllllllllllllllllllllllllllllllllllllllllllllllllllllllllllllllllll",
"llllllllllllllllllllllllllllllllllllllllllllllllllllllllllllllllllllllllllllllllllllllllllllllllllll",
"llllllllllllllllllllllllllllllllllllllllllllllllllllllllllllllllllllllllllllllllllllllllllllllllllll",
"llllllllllllllllllllllllllllllllllllllllllllllllllllllllllllllllllllllllllllllllllllllllllllllllllll",
"llllllllllllllllllllllllllllllllllllllllllllllllllllllllllllllllllllllllllllllllllllllllllllllllllll",
"llllllllllllllllllllllllllllllllllllllllllllllllllllllllllllllllllllllllllllllllllllllllllllllllllll",
"llllllllllllllllllllllllllllllllllllllllllllllllllllllllllllllllllllllllllllllllllllllllllllllllllll",
"llllllllllllllllllllllllllllllllllllllllllllllllllllllllllllllllllllllllllllllllllllllllllllllllllll",
"llllllllllllllllllllllllllllllllllllllllllllllllllllllllllllllllllllllllllllllllllllllllllllllllllll",
"llllllllllllllllllllllllllllllllllllllllllllllllllllllllllllllllllllllllllllllllllllllllllllllllllll",
"llllllllllllllllllllllllllllllllllllllllllllllllllllllllllllllllllllllllllllllllllllllllllllllllllll",
"llllllllllllllllllllllllllllllllllllllllllllllllllllllllllllllllllllllllllllllllllllllllllllllllllll",
"llllllllllllllllllllllllllllllllllllllllllllllllllllllllllllllllllllllllllllllllllllllllllllllllllll",
"llllllllllllllllllllllllllllllllllllllllllllllllllllllllllllllllllllllllllllllllllllllllllllllllllll",
"llllllllllllllllllllllllllllllllllllllllllllllllllllllllllllllllllllllllllllllllllllllllllllllllllll",
"llllllllllllllllllllllllllllllllllllllllllllllllllllllllllllllllllllllllllllllllllllllllllllllllllll",
"llllllllllllllllllllllllllllllllllllllllllllllllllllllllllllllllllllllllllllllllllllllllllllllllllll",
"llllllllllllllllllllllllllllllllllllllllllllllllllllllllllllllllllllllllllllllllllllllllllllllllllll",
"llllllllllllllllllllllllllllllllllllllllllllllllllllllllllllllllllllllllllllllllllllllllllllllllllll",
"llllllllllllllllllllllllllllllllllllllllllllllllllllllllllllllllllllllllllllllllllllllllllllllllllll",
"llllllllllllllllllllllllllllllllllllllllllllllllllllllllllllllllllllllllllllllllllllllllllllllllllll",
"llllllllllllllllllllllllllllllllllllllllllllllllllllllllllllllllllllllllllllllllllllllllllllllllllll",
"llllllllllllllllllllllllllllllllllllllllllllllllllllllllllllllllllllllllllllllllllllllllllllllllllll",
"llllllllllllllllllllllllllllllllllllllllllllllllllllllllllllllllllllllllllllllllllllllllllllllllllll",
"llllllllllllllllllllllllllllllllllllllllllllllllllllllllllllllllllllllllllllllllllllllllllllllllllll",
"llllllllllllllllllllllllllllllllllllllllllllllll;>>lllllllllllllllllllllllllllllllllllllllllllllllll",
"llllllllllllllllllllllllllllllllllllllllllll>=*&&&&&*;>lllllllllllllllllllllllllllllllllllllllllllll",
"llllllllllllllllllllllllllllllllllllllllll-&$#OOOoOOO$$*:lllllllllllllllllllllllllllllllllllllllllll",
"llllllllllllllllllllllllllllllllllllllll-&#OXX       XXO$*;lllllllllllllllllllllllllllllllllllllllll",
"lllllllllllllllllllllllllllllllllllllll-&+oX          XXO$&;llllllllllllllllllllllllllllllllllllllll",
"llllllllllllllllllllllllllllllllllllll-%OX.       X     .X@*>lllllllllllllllllllllllllllllllllllllll",
"lllllllllllllllllllllllllllllllllllll=%o     ..X.XXX..    XO$;llllllllllllllllllllllllllllllllllllll",
"lllllllllllllllllllllllllllllllllllll%+o    XXX.XXXXo..   .o$*llllllllllllllllllllllllllllllllllllll",
"llllllllllllllllllllllllllllllllllll=+o   .XooooXOXOOooX X XO$;lllllllllllllllllllllllllllllllllllll",
"llllllllllllllllllllllllllllllllllll%o   .XoO@@@@@$+$+Oo     +*lllllllllllllllllllllllllllllllllllll",
"lllllllllllllllllllllllllllllllllll*@X   XOO+#%$%&&%$$OoX    o$;llllllllllllllllllllllllllllllllllll",
"lllllllllllllllllllllllllllllllllll*O.   XO##&-1555,-$$XXXX XX$*llllllllllllllllllllllllllllllllllll",
"llllllllllllllllllllllllllllllllll=%o   Xo+#&:6wupy04*$+oX. ..O%llllllllllllllllllllllllllllllllllll",
"llllllllllllllllllllllllllllllllll=#o   Xo+#=5ydjjhae,$+oXX  .o*:lllllllllllllllllllllllllllllllllll",
"llllllllllllllllllllllllllllllllll=#.  .Xo@#>0fjkkkhp5=@OXX   O%:lllllllllllllllllllllllllllllllllll",
"llllllllllllllllllllllllllllllllll&@.  .XoO#<ehjkkkkf8-#OXX  XX%;lllllllllllllllllllllllllllllllllll",
"llllllllllllllllllllllllllllllllll&@.   XXO#<whjkkkkd7-#OoXX .X&:lllllllllllllllllllllllllllllllllll",
"llllllllllllllllllllllllllllllllll=#.   .oo@-9sjkkkhi5-$OoX ..o&:lllllllllllllllllllllllllllllllllll",
"llllllllllllllllllllllllllllllllll-$X  ..XO@%3rshjgiq1&$OOX. Xo&:lllllllllllllllllllllllllllllllllll",
"llllllllllllllllllllllllllllllllll-%o   .XoO#-50tyr83=%@OoX  XO*llllllllllllllllllllllllllllllllllll",
"lllllllllllllllllllllllllllllllllll*O.  ..oO#%=<231;=$#@XX.  X$*llllllllllllllllllllllllllllllllllll",
"lllllllllllllllllllllllllllllllllll*@. ...oO@#%&*=&&&@@OX.  .X$;llllllllllllllllllllllllllllllllllll",
"llllllllllllllllllllllllllllllllllll&O    .ooO@@++OO++oo.  XX$*lllllllllllllllllllllllllllllllllllll",
"llllllllllllllllllllllllllllllllllll-@o    ..ooOooooXo..    O$:lllllllllllllllllllllllllllllllllllll",
"lllllllllllllllllllllllllllllllllllll%+.    ..ooooXX.X..  .X$=llllllllllllllllllllllllllllllllllllll",
"lllllllllllllllllllllllllllllllllllll-&+.     .    ..    Xo$-<llllllllllllllllllllllllllllllllllllll",
"llllllllllllllllllllllllllllllllllllll:%OX               X$*>lllllllllllllllllllllllllllllllllllllll",
"lllllllllllllllllllllllllllllllllllllll;%@o           ..O$%>llllllllllllllllllllllllllllllllllllllll",
"llllllllllllllllllllllllllllllllllllllll<-%@OXo... ..o+$*:llllllllllllllllllllllllllllllllllllllllll",
"llllllllllllllllllllllllllllllllllllllllll:=%#@OO+o+$$%-,lllllllllllllllllllllllllllllllllllllllllll",
"llllllllllllllllllllllllllllllllllllllllllll:-&=&&&==;:lllllllllllllllllllllllllllllllllllllllllllll",
"llllllllllllllllllllllllllllllllllllllllllllllll<<1lllllllllllllllllllllllllllllllllllllllllllllllll",
"llllllllllllllllllllllllllllllllllllllllllllllllllllllllllllllllllllllllllllllllllllllllllllllllllll",
"llllllllllllllllllllllllllllllllllllllllllllllllllllllllllllllllllllllllllllllllllllllllllllllllllll",
"llllllllllllllllllllllllllllllllllllllllllllllllllllllllllllllllllllllllllllllllllllllllllllllllllll",
"llllllllllllllllllllllllllllllllllllllllllllllllllllllllllllllllllllllllllllllllllllllllllllllllllll",
"llllllllllllllllllllllllllllllllllllllllllllllllllllllllllllllllllllllllllllllllllllllllllllllllllll",
"llllllllllllllllllllllllllllllllllllllllllllllllllllllllllllllllllllllllllllllllllllllllllllllllllll",
"llllllllllllllllllllllllllllllllllllllllllllllllllllllllllllllllllllllllllllllllllllllllllllllllllll",
"llllllllllllllllllllllllllllllllllllllllllllllllllllllllllllllllllllllllllllllllllllllllllllllllllll",
"llllllllllllllllllllllllllllllllllllllllllllllllllllllllllllllllllllllllllllllllllllllllllllllllllll",
"llllllllllllllllllllllllllllllllllllllllllllllllllllllllllllllllllllllllllllllllllllllllllllllllllll",
"llllllllllllllllllllllllllllllllllllllllllllllllllllllllllllllllllllllllllllllllllllllllllllllllllll",
"llllllllllllllllllllllllllllllllllllllllllllllllllllllllllllllllllllllllllllllllllllllllllllllllllll",
"llllllllllllllllllllllllllllllllllllllllllllllllllllllllllllllllllllllllllllllllllllllllllllllllllll",
"llllllllllllllllllllllllllllllllllllllllllllllllllllllllllllllllllllllllllllllllllllllllllllllllllll",
"llllllllllllllllllllllllllllllllllllllllllllllllllllllllllllllllllllllllllllllllllllllllllllllllllll",
"llllllllllllllllllllllllllllllllllllllllllllllllllllllllllllllllllllllllllllllllllllllllllllllllllll",
"llllllllllllllllllllllllllllllllllllllllllllllllllllllllllllllllllllllllllllllllllllllllllllllllllll",
"llllllllllllllllllllllllllllllllllllllllllllllllllllllllllllllllllllllllllllllllllllllllllllllllllll",
"llllllllllllllllllllllllllllllllllllllllllllllllllllllllllllllllllllllllllllllllllllllllllllllllllll",
"llllllllllllllllllllllllllllllllllllllllllllllllllllllllllllllllllllllllllllllllllllllllllllllllllll",
"llllllllllllllllllllllllllllllllllllllllllllllllllllllllllllllllllllllllllllllllllllllllllllllllllll",
"llllllllllllllllllllllllllllllllllllllllllllllllllllllllllllllllllllllllllllllllllllllllllllllllllll",
"llllllllllllllllllllllllllllllllllllllllllllllllllllllllllllllllllllllllllllllllllllllllllllllllllll",
"llllllllllllllllllllllllllllllllllllllllllllllllllllllllllllllllllllllllllllllllllllllllllllllllllll",
"llllllllllllllllllllllllllllllllllllllllllllllllllllllllllllllllllllllllllllllllllllllllllllllllllll",
"llllllllllllllllllllllllllllllllllllllllllllllllllllllllllllllllllllllllllllllllllllllllllllllllllll",
"llllllllllllllllllllllllllllllllllllllllllllllllllllllllllllllllllllllllllllllllllllllllllllllllllll",
"llllllllllllllllllllllllllllllllllllllllllllllllllllllllllllllllllllllllllllllllllllllllllllllllllll",
"llllllllllllllllllllllllllllllllllllllllllllllllllllllllllllllllllllllllllllllllllllllllllllllllllll",
"llllllllllllllllllllllllllllllllllllllllllllllllllllllllllllllllllllllllllllllllllllllllllllllllllll",
"llllllllllllllllllllllllllllllllllllllllllllllllllllllllllllllllllllllllllllllllllllllllllllllllllll",
"llllllllllllllllllllllllllllllllllllllllllllllllllllllllllllllllllllllllllllllllllllllllllllllllllll",
"llllllllllllllllllllllllllllllllllllllllllllllllllllllllllllllllllllllllllllllllllllllllllllllllllll",
"llllllllllllllllllllllllllllllllllllllllllllllllllllllllllllllllllllllllllllllllllllllllllllllllllll"
};
